<svg xmlns="http://www.w3.org/2000/svg" width="99.044" height="85.312" viewBox="0 0 99.044 85.312"><defs><style>.a{fill:#fff;}</style></defs><g transform="translate(-473.879 -471.748)"><g transform="translate(473.879 534.038)"><g transform="translate(0 1.156)"><path class="a" d="M11.511-204.614l6.911,6.911v6.888L8.067-201.17H4.6v6.911H0v-18.422H4.6v6.911H5.755l6.911-6.911h6.911Z" transform="translate(0 212.681)"/></g><g transform="translate(20.731 1.156)"><path class="a" d="M0-212.681H4.6v6.911h9.223v-6.911h4.6v18.422h-4.6v-6.911H4.6v6.911H0Z" transform="translate(0 212.681)"/></g><g transform="translate(41.463 1.156)"><path class="a" d="M4.6-208.082v2.312H18.422l-2.288,4.6H4.6v2.312H19.578l-2.312,4.6H0v-18.422H19.578l-2.312,4.6Z" transform="translate(0 212.681)"/></g><g transform="translate(62.194 0)"><path class="a" d="M4.6-211.047H17.266l-2.288,4.6H0v-19.578l4.6,2.312Z" transform="translate(0 226.025)"/></g><g transform="translate(80.622 1.156)"><path class="a" d="M11.511-198.859l2.312-2.312v-6.911H6.911L4.6-205.77v6.911Zm6.911,0-4.6,4.6H0v-13.822l4.6-4.6H18.422Z" transform="translate(0 212.681)"/></g></g><g transform="translate(477.509 471.748)"><path class="a" d="M190.57-147.634a30.644,30.644,0,0,0-.315,3.864,30.622,30.622,0,0,0,.315,3.785h22.077v-7.648H197.429a18.841,18.841,0,0,1,18.372-14.9,18.657,18.657,0,0,1,13.956,6.229,56.185,56.185,0,0,1,3.942-5.677,25.41,25.41,0,0,0-17.9-7.333A25.555,25.555,0,0,0,190.57-147.634Z" transform="translate(-190.254 169.317)"/></g><g transform="translate(480.269 484.855)"><path class="a" d="M264.85-201.722c-5.677,8.042-12.143,13.483-19.4,13.483a18.733,18.733,0,0,1-15.691-8.437h-7.648c3.942,8.989,11.512,15.3,23.339,15.218,9.7,0,16.637-4.889,23.891-15.218,5.2-7.412,12.616-19.791,21.368-21.762a17.494,17.494,0,0,0-5.362-.946C276.757-219.384,271.553-211.184,264.85-201.722Z" transform="translate(-222.115 219.384)"/></g><g transform="translate(570.552 525.199) rotate(180)"><path class="a" d="M26,53.434h1.889c8.726-.63,15.292-5.487,22.039-15.2.72-.99,1.439-1.979,2.159-3.148,5.038-7.286,11.6-16.912,19.161-18.621-7.916-2.609-13.134.54-18.081,6.3-2.429,2.879-4.858,6.3-7.376,9.985-.18.18-.27.36-.36.45C39.94,41.02,33.554,46.417,26.537,46.687a23.008,23.008,0,0,1-7.466-1.529A19.667,19.667,0,0,1,8.816,35.443a16.747,16.747,0,0,1-1.8-5.667,17.568,17.568,0,0,1-.27-3.059,20.216,20.216,0,0,1,3.418-11.244c.09-.09.18-.27.36-.36A19.694,19.694,0,0,1,26.717,6.747,19.969,19.969,0,0,1,41.11,12.864l1.8-2.519h0l.45-.63h0l1.709-2.429A26.3,26.3,0,0,0,26.717,0,26.6,26.6,0,0,0,0,26.537v.18a30.852,30.852,0,0,0,.45,5.038,25.471,25.471,0,0,0,2.7,7.466,25.789,25.789,0,0,0,3.688,5.847c4.318,5.127,10.615,8.366,19.071,8.366Z" transform="translate(0 0)"/></g><g transform="translate(524.764 492.603) rotate(180)"><path class="a" d="M.09,0C0,.09,0,.09,0,.18,0,.09,0,.09.09,0Z" transform="translate(0 0)"/></g></g></svg>